<mxfile host="Electron" modified="2023-05-27T20:45:01.220Z" agent="Mozilla/5.0 (Windows NT 10.0; Win64; x64) AppleWebKit/537.36 (KHTML, like Gecko) draw.io/21.2.1 Chrome/112.0.5615.87 Electron/24.1.2 Safari/537.36" etag="7FibXJjnV4M9JamzCq50" version="21.2.1" type="device">
  <diagram name="PÃ¡gina-1" id="ZvPSoXnAMANCK5Lvd1j4">
    <mxGraphModel dx="3273" dy="1035" grid="1" gridSize="10" guides="1" tooltips="1" connect="1" arrows="1" fold="1" page="1" pageScale="1" pageWidth="1200" pageHeight="1920" math="0" shadow="0">
      <root>
        <mxCell id="0" />
        <mxCell id="1" parent="0" />
        <mxCell id="mtB2FNo0E3YjnpmJntex-23" style="edgeStyle=none;rounded=0;orthogonalLoop=1;jettySize=auto;html=1;exitX=1;exitY=0.3333333333333333;exitDx=0;exitDy=0;exitPerimeter=0;entryX=0.048;entryY=0.31;entryDx=0;entryDy=0;entryPerimeter=0;" parent="1" source="mtB2FNo0E3YjnpmJntex-1" target="mtB2FNo0E3YjnpmJntex-13" edge="1">
          <mxGeometry relative="1" as="geometry" />
        </mxCell>
        <mxCell id="mtB2FNo0E3YjnpmJntex-25" style="edgeStyle=none;rounded=0;orthogonalLoop=1;jettySize=auto;html=1;exitX=1;exitY=1;exitDx=0;exitDy=0;exitPerimeter=0;" parent="1" source="mtB2FNo0E3YjnpmJntex-1" target="mtB2FNo0E3YjnpmJntex-15" edge="1">
          <mxGeometry relative="1" as="geometry" />
        </mxCell>
        <mxCell id="mtB2FNo0E3YjnpmJntex-28" style="edgeStyle=none;rounded=0;orthogonalLoop=1;jettySize=auto;html=1;exitX=0.5;exitY=0;exitDx=0;exitDy=0;exitPerimeter=0;" parent="1" source="mtB2FNo0E3YjnpmJntex-1" target="mtB2FNo0E3YjnpmJntex-17" edge="1">
          <mxGeometry relative="1" as="geometry" />
        </mxCell>
        <mxCell id="77dryg0duwJHV9FGuUs4-3" style="edgeStyle=none;rounded=0;orthogonalLoop=1;jettySize=auto;html=1;" parent="1" source="mtB2FNo0E3YjnpmJntex-1" target="mtB2FNo0E3YjnpmJntex-19" edge="1">
          <mxGeometry relative="1" as="geometry" />
        </mxCell>
        <mxCell id="77dryg0duwJHV9FGuUs4-8" style="edgeStyle=none;rounded=0;orthogonalLoop=1;jettySize=auto;html=1;exitX=0.5;exitY=0;exitDx=0;exitDy=0;exitPerimeter=0;" parent="1" source="mtB2FNo0E3YjnpmJntex-1" edge="1">
          <mxGeometry relative="1" as="geometry">
            <mxPoint x="-1034.8823529411764" y="179.9999999999999" as="targetPoint" />
          </mxGeometry>
        </mxCell>
        <mxCell id="mtB2FNo0E3YjnpmJntex-1" value="usuario" style="shape=umlActor;verticalLabelPosition=bottom;verticalAlign=top;html=1;outlineConnect=0;" parent="1" vertex="1">
          <mxGeometry x="-1050" y="320" width="30" height="60" as="geometry" />
        </mxCell>
        <mxCell id="mtB2FNo0E3YjnpmJntex-4" value="representante de organizacion" style="shape=umlActor;verticalLabelPosition=bottom;verticalAlign=top;html=1;outlineConnect=0;" parent="1" vertex="1">
          <mxGeometry x="-1035" y="1170" width="30" height="60" as="geometry" />
        </mxCell>
        <mxCell id="mtB2FNo0E3YjnpmJntex-57" style="edgeStyle=none;rounded=0;orthogonalLoop=1;jettySize=auto;html=1;exitX=0.5;exitY=0.5;exitDx=0;exitDy=0;exitPerimeter=0;" parent="1" source="mtB2FNo0E3YjnpmJntex-5" target="mtB2FNo0E3YjnpmJntex-56" edge="1">
          <mxGeometry relative="1" as="geometry" />
        </mxCell>
        <mxCell id="mtB2FNo0E3YjnpmJntex-59" style="edgeStyle=none;rounded=0;orthogonalLoop=1;jettySize=auto;html=1;exitX=0.5;exitY=0.5;exitDx=0;exitDy=0;exitPerimeter=0;entryX=1;entryY=0.5;entryDx=0;entryDy=0;" parent="1" source="mtB2FNo0E3YjnpmJntex-5" target="mtB2FNo0E3YjnpmJntex-58" edge="1">
          <mxGeometry relative="1" as="geometry" />
        </mxCell>
        <mxCell id="mtB2FNo0E3YjnpmJntex-5" value="coordinador" style="shape=umlActor;verticalLabelPosition=bottom;verticalAlign=top;html=1;outlineConnect=0;" parent="1" vertex="1">
          <mxGeometry x="-1035" y="715" width="30" height="60" as="geometry" />
        </mxCell>
        <mxCell id="mtB2FNo0E3YjnpmJntex-44" style="edgeStyle=none;rounded=0;orthogonalLoop=1;jettySize=auto;html=1;exitX=0;exitY=0.3333333333333333;exitDx=0;exitDy=0;exitPerimeter=0;entryX=1;entryY=0;entryDx=0;entryDy=0;" parent="1" source="mtB2FNo0E3YjnpmJntex-9" target="mtB2FNo0E3YjnpmJntex-18" edge="1">
          <mxGeometry relative="1" as="geometry" />
        </mxCell>
        <mxCell id="mtB2FNo0E3YjnpmJntex-45" style="edgeStyle=none;rounded=0;orthogonalLoop=1;jettySize=auto;html=1;exitX=0.25;exitY=0.1;exitDx=0;exitDy=0;exitPerimeter=0;" parent="1" source="mtB2FNo0E3YjnpmJntex-9" target="mtB2FNo0E3YjnpmJntex-16" edge="1">
          <mxGeometry relative="1" as="geometry" />
        </mxCell>
        <mxCell id="mtB2FNo0E3YjnpmJntex-9" value="usuario visitante" style="shape=umlActor;verticalLabelPosition=bottom;verticalAlign=top;html=1;outlineConnect=0;" parent="1" vertex="1">
          <mxGeometry x="-1050" y="100" width="30" height="60" as="geometry" />
        </mxCell>
        <mxCell id="mtB2FNo0E3YjnpmJntex-14" value="mirar aviso" style="ellipse;whiteSpace=wrap;html=1;" parent="1" vertex="1">
          <mxGeometry x="-590" y="60" width="90" height="60" as="geometry" />
        </mxCell>
        <mxCell id="mtB2FNo0E3YjnpmJntex-16" value="buscar avisos&lt;br&gt;" style="ellipse;whiteSpace=wrap;html=1;" parent="1" vertex="1">
          <mxGeometry x="-830" y="55" width="120" height="80" as="geometry" />
        </mxCell>
        <mxCell id="mtB2FNo0E3YjnpmJntex-18" value="buscar organizaciones&lt;br&gt;en mapa" style="ellipse;whiteSpace=wrap;html=1;" parent="1" vertex="1">
          <mxGeometry x="-830" y="140" width="120" height="80" as="geometry" />
        </mxCell>
        <mxCell id="mtB2FNo0E3YjnpmJntex-29" value="mirar organizacion&lt;br&gt;" style="ellipse;whiteSpace=wrap;html=1;" parent="1" vertex="1">
          <mxGeometry x="-590" y="150" width="90" height="60" as="geometry" />
        </mxCell>
        <mxCell id="mtB2FNo0E3YjnpmJntex-85" style="edgeStyle=none;rounded=0;orthogonalLoop=1;jettySize=auto;html=1;entryX=0.075;entryY=0.5;entryDx=0;entryDy=0;entryPerimeter=0;" parent="1" source="mtB2FNo0E3YjnpmJntex-84" target="79-B2ttBRkuyAAYncrk3-5" edge="1">
          <mxGeometry relative="1" as="geometry">
            <mxPoint x="-325.9899999999998" y="823" as="targetPoint" />
          </mxGeometry>
        </mxCell>
        <mxCell id="77dryg0duwJHV9FGuUs4-9" value="herencia" style="text;html=1;align=center;verticalAlign=middle;resizable=0;points=[];autosize=1;strokeColor=none;fillColor=none;" parent="1" vertex="1">
          <mxGeometry x="-1105" y="235" width="70" height="30" as="geometry" />
        </mxCell>
        <mxCell id="77dryg0duwJHV9FGuUs4-14" value="SISTEMA" style="swimlane;whiteSpace=wrap;html=1;" parent="1" vertex="1">
          <mxGeometry x="-930" y="20" width="530" height="1590" as="geometry" />
        </mxCell>
        <mxCell id="mtB2FNo0E3YjnpmJntex-13" value="loguearse" style="ellipse;whiteSpace=wrap;html=1;" parent="77dryg0duwJHV9FGuUs4-14" vertex="1">
          <mxGeometry x="66.78999999999996" y="360" width="120" height="40" as="geometry" />
        </mxCell>
        <mxCell id="mtB2FNo0E3YjnpmJntex-15" value="crear sus avisos" style="ellipse;whiteSpace=wrap;html=1;" parent="77dryg0duwJHV9FGuUs4-14" vertex="1">
          <mxGeometry x="149.99999999999997" y="490" width="110" height="70" as="geometry" />
        </mxCell>
        <mxCell id="mtB2FNo0E3YjnpmJntex-19" value="actualizar su perfil" style="ellipse;whiteSpace=wrap;html=1;" parent="77dryg0duwJHV9FGuUs4-14" vertex="1">
          <mxGeometry x="159.64999999999998" y="410" width="120" height="80" as="geometry" />
        </mxCell>
        <mxCell id="mtB2FNo0E3YjnpmJntex-17" value="editar sus avisos" style="ellipse;whiteSpace=wrap;html=1;" parent="77dryg0duwJHV9FGuUs4-14" vertex="1">
          <mxGeometry x="179.99999999999997" y="310" width="120" height="80" as="geometry" />
        </mxCell>
        <mxCell id="79-B2ttBRkuyAAYncrk3-9" value="registrarse" style="ellipse;whiteSpace=wrap;html=1;" vertex="1" parent="77dryg0duwJHV9FGuUs4-14">
          <mxGeometry x="106.78999999999996" y="220" width="120" height="80" as="geometry" />
        </mxCell>
        <mxCell id="79-B2ttBRkuyAAYncrk3-12" style="edgeStyle=none;rounded=0;orthogonalLoop=1;jettySize=auto;html=1;entryX=0;entryY=0.5;entryDx=0;entryDy=0;" edge="1" parent="77dryg0duwJHV9FGuUs4-14">
          <mxGeometry relative="1" as="geometry">
            <mxPoint x="220" y="160" as="sourcePoint" />
            <mxPoint x="340" y="160" as="targetPoint" />
          </mxGeometry>
        </mxCell>
        <mxCell id="mtB2FNo0E3YjnpmJntex-84" value="enviar mail" style="ellipse;whiteSpace=wrap;html=1;" parent="77dryg0duwJHV9FGuUs4-14" vertex="1">
          <mxGeometry x="300" y="670" width="120" height="80" as="geometry" />
        </mxCell>
        <mxCell id="mtB2FNo0E3YjnpmJntex-56" value="validar organizaciones" style="ellipse;whiteSpace=wrap;html=1;" parent="77dryg0duwJHV9FGuUs4-14" vertex="1">
          <mxGeometry x="74.65" y="670" width="120" height="80" as="geometry" />
        </mxCell>
        <mxCell id="mtB2FNo0E3YjnpmJntex-58" value="consultar estadisticas" style="ellipse;whiteSpace=wrap;html=1;direction=west;" parent="77dryg0duwJHV9FGuUs4-14" vertex="1">
          <mxGeometry x="10" y="560" width="120" height="80" as="geometry" />
        </mxCell>
        <mxCell id="mtB2FNo0E3YjnpmJntex-86" style="edgeStyle=none;rounded=0;orthogonalLoop=1;jettySize=auto;html=1;" parent="77dryg0duwJHV9FGuUs4-14" source="mtB2FNo0E3YjnpmJntex-56" target="mtB2FNo0E3YjnpmJntex-84" edge="1">
          <mxGeometry relative="1" as="geometry">
            <mxPoint x="180" y="830" as="sourcePoint" />
            <Array as="points" />
          </mxGeometry>
        </mxCell>
        <mxCell id="mtB2FNo0E3YjnpmJntex-87" value="usa" style="text;html=1;align=center;verticalAlign=middle;resizable=0;points=[];autosize=1;strokeColor=none;fillColor=none;" parent="77dryg0duwJHV9FGuUs4-14" vertex="1">
          <mxGeometry x="217.14" y="680" width="40" height="30" as="geometry" />
        </mxCell>
        <mxCell id="79-B2ttBRkuyAAYncrk3-22" value="cambiar&amp;nbsp;&lt;br&gt;estado&lt;br&gt;de solicitud" style="ellipse;whiteSpace=wrap;html=1;direction=west;" vertex="1" parent="77dryg0duwJHV9FGuUs4-14">
          <mxGeometry x="74.65" y="840" width="120" height="80" as="geometry" />
        </mxCell>
        <mxCell id="79-B2ttBRkuyAAYncrk3-25" value="" style="edgeStyle=none;orthogonalLoop=1;jettySize=auto;html=1;rounded=0;entryX=0.5;entryY=1;entryDx=0;entryDy=0;exitX=0.5;exitY=1;exitDx=0;exitDy=0;" edge="1" parent="77dryg0duwJHV9FGuUs4-14" source="79-B2ttBRkuyAAYncrk3-22" target="mtB2FNo0E3YjnpmJntex-56">
          <mxGeometry width="100" relative="1" as="geometry">
            <mxPoint x="160" y="860" as="sourcePoint" />
            <mxPoint x="260" y="860" as="targetPoint" />
            <Array as="points" />
          </mxGeometry>
        </mxCell>
        <mxCell id="79-B2ttBRkuyAAYncrk3-26" value="ext" style="text;html=1;align=center;verticalAlign=middle;resizable=0;points=[];autosize=1;strokeColor=none;fillColor=none;" vertex="1" parent="77dryg0duwJHV9FGuUs4-14">
          <mxGeometry x="140.00000000000006" y="790" width="40" height="30" as="geometry" />
        </mxCell>
        <mxCell id="79-B2ttBRkuyAAYncrk3-29" value="Reintento Manual&lt;br&gt;de Exportacion" style="ellipse;whiteSpace=wrap;html=1;" vertex="1" parent="77dryg0duwJHV9FGuUs4-14">
          <mxGeometry x="74.64999999999998" y="940" width="120" height="80" as="geometry" />
        </mxCell>
        <mxCell id="79-B2ttBRkuyAAYncrk3-32" value="donar" style="ellipse;whiteSpace=wrap;html=1;direction=west;" vertex="1" parent="77dryg0duwJHV9FGuUs4-14">
          <mxGeometry x="39.64999999999998" y="1140" width="120" height="80" as="geometry" />
        </mxCell>
        <mxCell id="79-B2ttBRkuyAAYncrk3-34" value="generar factura" style="ellipse;whiteSpace=wrap;html=1;direction=west;" vertex="1" parent="77dryg0duwJHV9FGuUs4-14">
          <mxGeometry x="329.99999999999994" y="1140" width="120" height="80" as="geometry" />
        </mxCell>
        <mxCell id="79-B2ttBRkuyAAYncrk3-36" value="" style="edgeStyle=none;orthogonalLoop=1;jettySize=auto;html=1;rounded=0;exitX=0;exitY=0.5;exitDx=0;exitDy=0;entryX=1;entryY=0.5;entryDx=0;entryDy=0;" edge="1" parent="77dryg0duwJHV9FGuUs4-14" source="79-B2ttBRkuyAAYncrk3-32" target="79-B2ttBRkuyAAYncrk3-34">
          <mxGeometry width="100" relative="1" as="geometry">
            <mxPoint x="150" y="1240" as="sourcePoint" />
            <mxPoint x="250" y="1240" as="targetPoint" />
            <Array as="points" />
          </mxGeometry>
        </mxCell>
        <mxCell id="79-B2ttBRkuyAAYncrk3-37" value="usa" style="text;html=1;align=center;verticalAlign=middle;resizable=0;points=[];autosize=1;strokeColor=none;fillColor=none;" vertex="1" parent="77dryg0duwJHV9FGuUs4-14">
          <mxGeometry x="170" y="1148" width="40" height="30" as="geometry" />
        </mxCell>
        <mxCell id="79-B2ttBRkuyAAYncrk3-40" value="validar pago" style="ellipse;whiteSpace=wrap;html=1;direction=west;" vertex="1" parent="77dryg0duwJHV9FGuUs4-14">
          <mxGeometry x="350" y="1050" width="120" height="80" as="geometry" />
        </mxCell>
        <mxCell id="79-B2ttBRkuyAAYncrk3-63" value="cambiar categoria" style="ellipse;whiteSpace=wrap;html=1;direction=west;" vertex="1" parent="77dryg0duwJHV9FGuUs4-14">
          <mxGeometry x="177.14" y="1030" width="120" height="80" as="geometry" />
        </mxCell>
        <mxCell id="79-B2ttBRkuyAAYncrk3-64" value="" style="edgeStyle=none;orthogonalLoop=1;jettySize=auto;html=1;rounded=0;exitX=0;exitY=0.5;exitDx=0;exitDy=0;entryX=1;entryY=0.5;entryDx=0;entryDy=0;" edge="1" parent="77dryg0duwJHV9FGuUs4-14" source="79-B2ttBRkuyAAYncrk3-63" target="79-B2ttBRkuyAAYncrk3-40">
          <mxGeometry width="100" relative="1" as="geometry">
            <mxPoint x="290" y="1040" as="sourcePoint" />
            <mxPoint x="390" y="1040" as="targetPoint" />
            <Array as="points" />
          </mxGeometry>
        </mxCell>
        <mxCell id="79-B2ttBRkuyAAYncrk3-68" value="inscribir&amp;nbsp;&lt;br&gt;organizacion" style="ellipse;whiteSpace=wrap;html=1;" vertex="1" parent="77dryg0duwJHV9FGuUs4-14">
          <mxGeometry x="44.64999999999998" y="1260" width="110" height="80" as="geometry" />
        </mxCell>
        <mxCell id="79-B2ttBRkuyAAYncrk3-70" value="notificar&lt;br&gt;registro" style="ellipse;whiteSpace=wrap;html=1;" vertex="1" parent="77dryg0duwJHV9FGuUs4-14">
          <mxGeometry x="226.78999999999996" y="1260" width="110" height="80" as="geometry" />
        </mxCell>
        <mxCell id="79-B2ttBRkuyAAYncrk3-71" value="" style="edgeStyle=none;orthogonalLoop=1;jettySize=auto;html=1;rounded=0;exitX=1;exitY=0.5;exitDx=0;exitDy=0;entryX=0;entryY=0.5;entryDx=0;entryDy=0;" edge="1" parent="77dryg0duwJHV9FGuUs4-14" source="79-B2ttBRkuyAAYncrk3-68" target="79-B2ttBRkuyAAYncrk3-70">
          <mxGeometry width="100" relative="1" as="geometry">
            <mxPoint x="160" y="1310" as="sourcePoint" />
            <mxPoint x="260" y="1310" as="targetPoint" />
            <Array as="points" />
          </mxGeometry>
        </mxCell>
        <mxCell id="77dryg0duwJHV9FGuUs4-16" value="" style="shape=image;html=1;verticalLabelPosition=bottom;verticalAlign=top;imageAspect=1;aspect=fixed;image=img/clipart/Gear_128x128.png" parent="77dryg0duwJHV9FGuUs4-14" vertex="1">
          <mxGeometry x="268.56999999999994" y="1250" width="26.43" height="31" as="geometry" />
        </mxCell>
        <mxCell id="79-B2ttBRkuyAAYncrk3-73" value="normalizar&amp;nbsp;&lt;br&gt;direcciones" style="ellipse;whiteSpace=wrap;html=1;" vertex="1" parent="77dryg0duwJHV9FGuUs4-14">
          <mxGeometry x="44.64999999999998" y="1400" width="110" height="80" as="geometry" />
        </mxCell>
        <mxCell id="79-B2ttBRkuyAAYncrk3-74" value="" style="edgeStyle=none;orthogonalLoop=1;jettySize=auto;html=1;rounded=0;exitX=0.5;exitY=1;exitDx=0;exitDy=0;entryX=0.5;entryY=0;entryDx=0;entryDy=0;" edge="1" parent="77dryg0duwJHV9FGuUs4-14" source="79-B2ttBRkuyAAYncrk3-68" target="79-B2ttBRkuyAAYncrk3-73">
          <mxGeometry width="100" relative="1" as="geometry">
            <mxPoint y="1370" as="sourcePoint" />
            <mxPoint x="100" y="1370" as="targetPoint" />
            <Array as="points" />
          </mxGeometry>
        </mxCell>
        <mxCell id="79-B2ttBRkuyAAYncrk3-76" value="usa" style="text;html=1;align=center;verticalAlign=middle;resizable=0;points=[];autosize=1;strokeColor=none;fillColor=none;" vertex="1" parent="77dryg0duwJHV9FGuUs4-14">
          <mxGeometry x="100" y="1348" width="40" height="30" as="geometry" />
        </mxCell>
        <mxCell id="79-B2ttBRkuyAAYncrk3-81" value="informar&lt;br&gt;vencimiento&lt;br&gt;de categoria" style="ellipse;whiteSpace=wrap;html=1;" vertex="1" parent="77dryg0duwJHV9FGuUs4-14">
          <mxGeometry x="300" y="540" width="120" height="80" as="geometry" />
        </mxCell>
        <mxCell id="79-B2ttBRkuyAAYncrk3-113" value="" style="edgeStyle=none;orthogonalLoop=1;jettySize=auto;html=1;rounded=0;exitX=0.5;exitY=1;exitDx=0;exitDy=0;entryX=0.5;entryY=0;entryDx=0;entryDy=0;" edge="1" parent="77dryg0duwJHV9FGuUs4-14" source="79-B2ttBRkuyAAYncrk3-81" target="mtB2FNo0E3YjnpmJntex-84">
          <mxGeometry width="100" relative="1" as="geometry">
            <mxPoint x="400" y="660" as="sourcePoint" />
            <mxPoint x="500" y="660" as="targetPoint" />
            <Array as="points" />
          </mxGeometry>
        </mxCell>
        <mxCell id="79-B2ttBRkuyAAYncrk3-114" value="usa" style="text;html=1;align=center;verticalAlign=middle;resizable=0;points=[];autosize=1;strokeColor=none;fillColor=none;" vertex="1" parent="77dryg0duwJHV9FGuUs4-14">
          <mxGeometry x="360" y="628" width="40" height="30" as="geometry" />
        </mxCell>
        <mxCell id="79-B2ttBRkuyAAYncrk3-115" value="" style="shape=image;html=1;verticalLabelPosition=bottom;verticalAlign=top;imageAspect=1;aspect=fixed;image=img/clipart/Gear_128x128.png" vertex="1" parent="77dryg0duwJHV9FGuUs4-14">
          <mxGeometry x="346.78999999999996" y="520" width="26.43" height="31" as="geometry" />
        </mxCell>
        <mxCell id="79-B2ttBRkuyAAYncrk3-118" value="informar&lt;br&gt;vencimiento&lt;br&gt;de categoria" style="ellipse;whiteSpace=wrap;html=1;" vertex="1" parent="77dryg0duwJHV9FGuUs4-14">
          <mxGeometry x="217.14" y="770.5" width="120" height="80" as="geometry" />
        </mxCell>
        <mxCell id="79-B2ttBRkuyAAYncrk3-119" value="" style="shape=image;html=1;verticalLabelPosition=bottom;verticalAlign=top;imageAspect=1;aspect=fixed;image=img/clipart/Gear_128x128.png" vertex="1" parent="77dryg0duwJHV9FGuUs4-14">
          <mxGeometry x="264.14" y="759.5" width="26.43" height="31" as="geometry" />
        </mxCell>
        <mxCell id="79-B2ttBRkuyAAYncrk3-120" value="usa" style="text;html=1;align=center;verticalAlign=middle;resizable=0;points=[];autosize=1;strokeColor=none;fillColor=none;" vertex="1" parent="77dryg0duwJHV9FGuUs4-14">
          <mxGeometry x="170" y="1270" width="40" height="30" as="geometry" />
        </mxCell>
        <mxCell id="79-B2ttBRkuyAAYncrk3-72" value="" style="edgeStyle=none;orthogonalLoop=1;jettySize=auto;html=1;rounded=0;exitX=1;exitY=0.5;exitDx=0;exitDy=0;" edge="1" parent="77dryg0duwJHV9FGuUs4-14" source="79-B2ttBRkuyAAYncrk3-70" target="mtB2FNo0E3YjnpmJntex-84">
          <mxGeometry width="100" relative="1" as="geometry">
            <mxPoint x="400" y="1330" as="sourcePoint" />
            <mxPoint x="430" y="750" as="targetPoint" />
            <Array as="points">
              <mxPoint x="490" y="1300" />
              <mxPoint x="490" y="750" />
            </Array>
          </mxGeometry>
        </mxCell>
        <mxCell id="79-B2ttBRkuyAAYncrk3-159" value="usa" style="edgeLabel;html=1;align=center;verticalAlign=middle;resizable=0;points=[];" vertex="1" connectable="0" parent="79-B2ttBRkuyAAYncrk3-72">
          <mxGeometry x="0.5007" y="-3" relative="1" as="geometry">
            <mxPoint x="7" y="14" as="offset" />
          </mxGeometry>
        </mxCell>
        <mxCell id="79-B2ttBRkuyAAYncrk3-160" value="" style="edgeStyle=none;orthogonalLoop=1;jettySize=auto;html=1;rounded=0;exitX=0.74;exitY=0.063;exitDx=0;exitDy=0;exitPerimeter=0;entryX=0.5;entryY=1;entryDx=0;entryDy=0;" edge="1" parent="77dryg0duwJHV9FGuUs4-14" source="79-B2ttBRkuyAAYncrk3-118" target="mtB2FNo0E3YjnpmJntex-84">
          <mxGeometry width="100" relative="1" as="geometry">
            <mxPoint x="360" y="850" as="sourcePoint" />
            <mxPoint x="460" y="850" as="targetPoint" />
            <Array as="points" />
          </mxGeometry>
        </mxCell>
        <mxCell id="79-B2ttBRkuyAAYncrk3-161" value="usa" style="text;html=1;align=center;verticalAlign=middle;resizable=0;points=[];autosize=1;strokeColor=none;fillColor=none;" vertex="1" parent="77dryg0duwJHV9FGuUs4-14">
          <mxGeometry x="295" y="740.5" width="40" height="30" as="geometry" />
        </mxCell>
        <mxCell id="79-B2ttBRkuyAAYncrk3-163" value="enviar info a&lt;br&gt;4PrintMagazine" style="ellipse;whiteSpace=wrap;html=1;" vertex="1" parent="77dryg0duwJHV9FGuUs4-14">
          <mxGeometry x="210" y="880" width="120" height="80" as="geometry" />
        </mxCell>
        <mxCell id="79-B2ttBRkuyAAYncrk3-165" value="notificar fallo de&lt;br&gt;exportacion" style="ellipse;whiteSpace=wrap;html=1;" vertex="1" parent="77dryg0duwJHV9FGuUs4-14">
          <mxGeometry x="360" y="790" width="120" height="80" as="geometry" />
        </mxCell>
        <mxCell id="79-B2ttBRkuyAAYncrk3-166" value="" style="edgeStyle=none;orthogonalLoop=1;jettySize=auto;html=1;rounded=0;entryX=0.933;entryY=0.203;entryDx=0;entryDy=0;entryPerimeter=0;exitX=0;exitY=1;exitDx=0;exitDy=0;" edge="1" parent="77dryg0duwJHV9FGuUs4-14" source="79-B2ttBRkuyAAYncrk3-165" target="79-B2ttBRkuyAAYncrk3-163">
          <mxGeometry width="100" relative="1" as="geometry">
            <mxPoint x="460" y="920" as="sourcePoint" />
            <mxPoint x="500" y="880" as="targetPoint" />
            <Array as="points" />
          </mxGeometry>
        </mxCell>
        <mxCell id="79-B2ttBRkuyAAYncrk3-167" value="ext" style="text;html=1;align=center;verticalAlign=middle;resizable=0;points=[];autosize=1;strokeColor=none;fillColor=none;" vertex="1" parent="77dryg0duwJHV9FGuUs4-14">
          <mxGeometry x="319.99999999999994" y="850.5" width="40" height="30" as="geometry" />
        </mxCell>
        <mxCell id="79-B2ttBRkuyAAYncrk3-168" value="" style="edgeStyle=none;orthogonalLoop=1;jettySize=auto;html=1;rounded=0;exitX=0.5;exitY=0;exitDx=0;exitDy=0;" edge="1" parent="77dryg0duwJHV9FGuUs4-14" source="79-B2ttBRkuyAAYncrk3-165" target="mtB2FNo0E3YjnpmJntex-84">
          <mxGeometry width="100" relative="1" as="geometry">
            <mxPoint x="380" y="910" as="sourcePoint" />
            <mxPoint x="480" y="910" as="targetPoint" />
            <Array as="points" />
          </mxGeometry>
        </mxCell>
        <mxCell id="77dryg0duwJHV9FGuUs4-26" value="LEYENDAS" style="swimlane;whiteSpace=wrap;html=1;" parent="1" vertex="1">
          <mxGeometry x="-320" y="30" width="200" height="200" as="geometry" />
        </mxCell>
        <mxCell id="77dryg0duwJHV9FGuUs4-24" value="" style="shape=image;html=1;verticalLabelPosition=bottom;verticalAlign=top;imageAspect=1;aspect=fixed;image=img/clipart/Gear_128x128.png" parent="77dryg0duwJHV9FGuUs4-26" vertex="1">
          <mxGeometry x="28" y="30" width="52" height="61" as="geometry" />
        </mxCell>
        <mxCell id="77dryg0duwJHV9FGuUs4-25" value="=AUTOMATICO" style="text;html=1;align=center;verticalAlign=middle;resizable=0;points=[];autosize=1;strokeColor=none;fillColor=none;" parent="77dryg0duwJHV9FGuUs4-26" vertex="1">
          <mxGeometry x="80" y="45.5" width="110" height="30" as="geometry" />
        </mxCell>
        <mxCell id="79-B2ttBRkuyAAYncrk3-3" value="" style="shape=mxgraph.cisco.computers_and_peripherals.ibm_tower;html=1;pointerEvents=1;dashed=0;fillColor=#036897;strokeColor=#ffffff;strokeWidth=2;verticalLabelPosition=bottom;verticalAlign=top;align=center;outlineConnect=0;" vertex="1" parent="1">
          <mxGeometry x="-341" y="950" width="42" height="77" as="geometry" />
        </mxCell>
        <mxCell id="79-B2ttBRkuyAAYncrk3-4" value="" style="shape=mxgraph.cisco.computers_and_peripherals.ibm_tower;html=1;pointerEvents=1;dashed=0;fillColor=#036897;strokeColor=#ffffff;strokeWidth=2;verticalLabelPosition=bottom;verticalAlign=top;align=center;outlineConnect=0;" vertex="1" parent="1">
          <mxGeometry x="-336" y="1161.5" width="42" height="77" as="geometry" />
        </mxCell>
        <mxCell id="79-B2ttBRkuyAAYncrk3-5" value="" style="shape=mxgraph.cisco.computers_and_peripherals.ibm_tower;html=1;pointerEvents=1;dashed=0;fillColor=#036897;strokeColor=#ffffff;strokeWidth=2;verticalLabelPosition=bottom;verticalAlign=top;align=center;outlineConnect=0;" vertex="1" parent="1">
          <mxGeometry x="-331" y="690" width="42" height="77" as="geometry" />
        </mxCell>
        <mxCell id="79-B2ttBRkuyAAYncrk3-6" value="Sis. Mail externo&lt;br&gt;" style="text;html=1;align=center;verticalAlign=middle;resizable=0;points=[];autosize=1;strokeColor=none;fillColor=none;" vertex="1" parent="1">
          <mxGeometry x="-384" y="775" width="110" height="30" as="geometry" />
        </mxCell>
        <mxCell id="79-B2ttBRkuyAAYncrk3-7" value="Sis. RapiFacil externo" style="text;html=1;align=center;verticalAlign=middle;resizable=0;points=[];autosize=1;strokeColor=none;fillColor=none;" vertex="1" parent="1">
          <mxGeometry x="-380" y="1238.5" width="140" height="30" as="geometry" />
        </mxCell>
        <mxCell id="79-B2ttBRkuyAAYncrk3-8" value="Sis. 4PrintMagazine externo" style="text;html=1;align=center;verticalAlign=middle;resizable=0;points=[];autosize=1;strokeColor=none;fillColor=none;" vertex="1" parent="1">
          <mxGeometry x="-400" y="1027" width="170" height="30" as="geometry" />
        </mxCell>
        <mxCell id="79-B2ttBRkuyAAYncrk3-10" style="edgeStyle=none;rounded=0;orthogonalLoop=1;jettySize=auto;html=1;exitX=0.5;exitY=0;exitDx=0;exitDy=0;exitPerimeter=0;" edge="1" parent="1" target="79-B2ttBRkuyAAYncrk3-9">
          <mxGeometry relative="1" as="geometry">
            <mxPoint x="-1028" y="160" as="sourcePoint" />
            <mxPoint x="-760" y="218" as="targetPoint" />
          </mxGeometry>
        </mxCell>
        <mxCell id="79-B2ttBRkuyAAYncrk3-11" style="edgeStyle=none;rounded=0;orthogonalLoop=1;jettySize=auto;html=1;entryX=0;entryY=0.5;entryDx=0;entryDy=0;" edge="1" parent="1" target="mtB2FNo0E3YjnpmJntex-14">
          <mxGeometry relative="1" as="geometry">
            <mxPoint x="-710" y="90" as="sourcePoint" />
            <mxPoint x="-757" y="388" as="targetPoint" />
          </mxGeometry>
        </mxCell>
        <mxCell id="79-B2ttBRkuyAAYncrk3-13" value="usa" style="text;html=1;align=center;verticalAlign=middle;resizable=0;points=[];autosize=1;strokeColor=none;fillColor=none;" vertex="1" parent="1">
          <mxGeometry x="-680" y="68" width="40" height="30" as="geometry" />
        </mxCell>
        <mxCell id="79-B2ttBRkuyAAYncrk3-14" value="usa" style="text;html=1;align=center;verticalAlign=middle;resizable=0;points=[];autosize=1;strokeColor=none;fillColor=none;" vertex="1" parent="1">
          <mxGeometry x="-680" y="148" width="40" height="30" as="geometry" />
        </mxCell>
        <mxCell id="79-B2ttBRkuyAAYncrk3-15" value="" style="shape=mxgraph.cisco.computers_and_peripherals.ibm_tower;html=1;pointerEvents=1;dashed=0;fillColor=#036897;strokeColor=#ffffff;strokeWidth=2;verticalLabelPosition=bottom;verticalAlign=top;align=center;outlineConnect=0;" vertex="1" parent="1">
          <mxGeometry x="-350" y="265" width="42" height="77" as="geometry" />
        </mxCell>
        <mxCell id="79-B2ttBRkuyAAYncrk3-16" value="Sis. Mapas ext" style="text;html=1;align=center;verticalAlign=middle;resizable=0;points=[];autosize=1;strokeColor=none;fillColor=none;" vertex="1" parent="1">
          <mxGeometry x="-370" y="378" width="100" height="30" as="geometry" />
        </mxCell>
        <mxCell id="79-B2ttBRkuyAAYncrk3-17" value="" style="edgeStyle=none;orthogonalLoop=1;jettySize=auto;html=1;rounded=0;exitX=1;exitY=0.5;exitDx=0;exitDy=0;" edge="1" parent="1" source="mtB2FNo0E3YjnpmJntex-29" target="79-B2ttBRkuyAAYncrk3-15">
          <mxGeometry width="100" relative="1" as="geometry">
            <mxPoint x="-530" y="260" as="sourcePoint" />
            <mxPoint x="-430" y="260" as="targetPoint" />
            <Array as="points" />
          </mxGeometry>
        </mxCell>
        <mxCell id="79-B2ttBRkuyAAYncrk3-23" style="edgeStyle=none;rounded=0;orthogonalLoop=1;jettySize=auto;html=1;entryX=1;entryY=1;entryDx=0;entryDy=0;exitX=1;exitY=1;exitDx=0;exitDy=0;exitPerimeter=0;" edge="1" parent="1" source="mtB2FNo0E3YjnpmJntex-5" target="79-B2ttBRkuyAAYncrk3-22">
          <mxGeometry relative="1" as="geometry">
            <mxPoint x="-1010" y="780" as="sourcePoint" />
            <mxPoint x="-867" y="813" as="targetPoint" />
          </mxGeometry>
        </mxCell>
        <mxCell id="79-B2ttBRkuyAAYncrk3-30" value="" style="edgeStyle=none;orthogonalLoop=1;jettySize=auto;html=1;rounded=0;exitX=1;exitY=1;exitDx=0;exitDy=0;exitPerimeter=0;entryX=0.045;entryY=0.25;entryDx=0;entryDy=0;entryPerimeter=0;" edge="1" parent="1" source="mtB2FNo0E3YjnpmJntex-5" target="79-B2ttBRkuyAAYncrk3-29">
          <mxGeometry width="100" relative="1" as="geometry">
            <mxPoint x="-1050" y="850" as="sourcePoint" />
            <mxPoint x="-950" y="850" as="targetPoint" />
            <Array as="points" />
          </mxGeometry>
        </mxCell>
        <mxCell id="79-B2ttBRkuyAAYncrk3-31" value="" style="edgeStyle=none;orthogonalLoop=1;jettySize=auto;html=1;rounded=0;exitX=0.961;exitY=0.375;exitDx=0;exitDy=0;exitPerimeter=0;" edge="1" parent="1" source="79-B2ttBRkuyAAYncrk3-29" target="79-B2ttBRkuyAAYncrk3-3">
          <mxGeometry width="100" relative="1" as="geometry">
            <mxPoint x="-690" y="1040" as="sourcePoint" />
            <mxPoint x="-590" y="1040" as="targetPoint" />
            <Array as="points" />
          </mxGeometry>
        </mxCell>
        <mxCell id="79-B2ttBRkuyAAYncrk3-33" value="" style="edgeStyle=none;orthogonalLoop=1;jettySize=auto;html=1;rounded=0;entryX=1;entryY=0.5;entryDx=0;entryDy=0;exitX=0.5;exitY=0.5;exitDx=0;exitDy=0;exitPerimeter=0;" edge="1" parent="1" source="mtB2FNo0E3YjnpmJntex-4" target="79-B2ttBRkuyAAYncrk3-32">
          <mxGeometry width="100" relative="1" as="geometry">
            <mxPoint x="-1005" y="1201" as="sourcePoint" />
            <mxPoint x="-905" y="1201" as="targetPoint" />
            <Array as="points" />
          </mxGeometry>
        </mxCell>
        <mxCell id="79-B2ttBRkuyAAYncrk3-65" value="ext" style="text;html=1;align=center;verticalAlign=middle;resizable=0;points=[];autosize=1;strokeColor=none;fillColor=none;" vertex="1" parent="1">
          <mxGeometry x="-620" y="1058" width="40" height="30" as="geometry" />
        </mxCell>
        <mxCell id="79-B2ttBRkuyAAYncrk3-66" value="" style="edgeStyle=none;orthogonalLoop=1;jettySize=auto;html=1;rounded=0;exitX=0.15;exitY=0.04;exitDx=0;exitDy=0;exitPerimeter=0;" edge="1" parent="1" source="79-B2ttBRkuyAAYncrk3-4" target="79-B2ttBRkuyAAYncrk3-40">
          <mxGeometry width="100" relative="1" as="geometry">
            <mxPoint x="-460" y="1130" as="sourcePoint" />
            <mxPoint x="-360" y="1090" as="targetPoint" />
            <Array as="points" />
          </mxGeometry>
        </mxCell>
        <mxCell id="79-B2ttBRkuyAAYncrk3-38" value="" style="edgeStyle=none;orthogonalLoop=1;jettySize=auto;html=1;rounded=0;" edge="1" parent="1" source="79-B2ttBRkuyAAYncrk3-34" target="79-B2ttBRkuyAAYncrk3-4">
          <mxGeometry width="100" relative="1" as="geometry">
            <mxPoint x="-583.21" y="1199.38" as="sourcePoint" />
            <mxPoint x="-483.21" y="1199.38" as="targetPoint" />
            <Array as="points" />
          </mxGeometry>
        </mxCell>
        <mxCell id="79-B2ttBRkuyAAYncrk3-69" value="" style="edgeStyle=none;orthogonalLoop=1;jettySize=auto;html=1;rounded=0;exitX=1;exitY=1;exitDx=0;exitDy=0;exitPerimeter=0;entryX=0.033;entryY=0.391;entryDx=0;entryDy=0;entryPerimeter=0;" edge="1" parent="1" source="mtB2FNo0E3YjnpmJntex-4" target="79-B2ttBRkuyAAYncrk3-68">
          <mxGeometry width="100" relative="1" as="geometry">
            <mxPoint x="-1040" y="1320" as="sourcePoint" />
            <mxPoint x="-940" y="1320" as="targetPoint" />
            <Array as="points" />
          </mxGeometry>
        </mxCell>
        <mxCell id="79-B2ttBRkuyAAYncrk3-77" value="" style="shape=mxgraph.cisco.computers_and_peripherals.ibm_tower;html=1;pointerEvents=1;dashed=0;fillColor=#036897;strokeColor=#ffffff;strokeWidth=2;verticalLabelPosition=bottom;verticalAlign=top;align=center;outlineConnect=0;" vertex="1" parent="1">
          <mxGeometry x="-336" y="1423" width="42" height="77" as="geometry" />
        </mxCell>
        <mxCell id="79-B2ttBRkuyAAYncrk3-78" value="Sis. USIG (normalizador)&lt;br&gt;externo" style="text;html=1;align=center;verticalAlign=middle;resizable=0;points=[];autosize=1;strokeColor=none;fillColor=none;" vertex="1" parent="1">
          <mxGeometry x="-390" y="1500" width="160" height="40" as="geometry" />
        </mxCell>
        <mxCell id="79-B2ttBRkuyAAYncrk3-79" value="" style="edgeStyle=none;orthogonalLoop=1;jettySize=auto;html=1;rounded=0;exitX=1;exitY=0.5;exitDx=0;exitDy=0;" edge="1" parent="1" source="79-B2ttBRkuyAAYncrk3-73" target="79-B2ttBRkuyAAYncrk3-77">
          <mxGeometry width="100" relative="1" as="geometry">
            <mxPoint x="-570" y="1510" as="sourcePoint" />
            <mxPoint x="-470" y="1510" as="targetPoint" />
            <Array as="points" />
          </mxGeometry>
        </mxCell>
        <mxCell id="79-B2ttBRkuyAAYncrk3-164" value="" style="edgeStyle=none;orthogonalLoop=1;jettySize=auto;html=1;rounded=0;exitX=1;exitY=0.5;exitDx=0;exitDy=0;" edge="1" parent="1" source="79-B2ttBRkuyAAYncrk3-163" target="79-B2ttBRkuyAAYncrk3-3">
          <mxGeometry width="100" relative="1" as="geometry">
            <mxPoint x="-530" y="940" as="sourcePoint" />
            <mxPoint x="-430" y="940" as="targetPoint" />
            <Array as="points" />
          </mxGeometry>
        </mxCell>
        <mxCell id="79-B2ttBRkuyAAYncrk3-169" value="usa" style="text;html=1;align=center;verticalAlign=middle;resizable=0;points=[];autosize=1;strokeColor=none;fillColor=none;" vertex="1" parent="1">
          <mxGeometry x="-510" y="778" width="40" height="30" as="geometry" />
        </mxCell>
      </root>
    </mxGraphModel>
  </diagram>
</mxfile>
